<svg xmlns="http://www.w3.org/2000/svg" viewBox="0 0 560 440"><defs><linearGradient id="sky" x1="0" y1="0" x2="0" y2="1"><stop offset="0" stop-color="#dbe3ff"/><stop offset="1" stop-color="#ffe6f0"/></linearGradient><linearGradient id="b" x1="0" y1="0" x2="1" y2="1"><stop offset="0" stop-color="#3b5bdb"/><stop offset="1" stop-color="#6b46e5"/></linearGradient></defs><rect width="560" height="440" rx="24" fill="url(#sky)"/><path d="M70 300 Q280 140 490 300" fill="none" stroke="#3b5bdb" stroke-width="4" stroke-dasharray="10 10" opacity=".55"/><circle cx="70" cy="300" r="30" fill="#fff"/><text x="70" y="309" font-size="26" text-anchor="middle">🇨🇳</text><circle cx="490" cy="300" r="30" fill="#fff"/><text x="490" y="309" font-size="26" text-anchor="middle">🇪🇺</text><g transform="translate(232,150)"><rect width="96" height="86" rx="12" fill="url(#b)"/><rect y="30" width="96" height="4" fill="#fff" opacity=".7"/><rect x="40" y="-2" width="16" height="36" fill="#fff" opacity=".7"/><text x="48" y="66" font-size="34" text-anchor="middle">📦</text></g><g font-family="Arial" font-size="15" fill="#2f3550"><rect x="40" y="360" width="150" height="44" rx="12" fill="#fff"/><text x="60" y="387">✈️ Air · 5-8d</text><rect x="210" y="360" width="150" height="44" rx="12" fill="#fff"/><text x="230" y="387">💶 Transparent</text><rect x="380" y="360" width="140" height="44" rx="12" fill="#fff"/><text x="400" y="387">★ Live track</text></g></svg>